<mxfile host="65bd71144e">
    <diagram id="FHnI-51RlHZe3pVvS7ff" name="Page-1">
        <mxGraphModel dx="4445" dy="2443" grid="1" gridSize="10" guides="1" tooltips="1" connect="1" arrows="1" fold="1" page="1" pageScale="1" pageWidth="1100" pageHeight="850" math="0" shadow="0">
            <root>
                <mxCell id="0"/>
                <mxCell id="1" parent="0"/>
                <mxCell id="QN6NI6EVr7MsUQMu-n-5-1" value="" style="rounded=1;whiteSpace=wrap;html=1;fillColor=#67AB9F;opacity=40;strokeColor=#000000;glass=0;strokeWidth=6;fontStyle=1" parent="1" vertex="1">
                    <mxGeometry x="-50" y="430" width="1410" height="360" as="geometry"/>
                </mxCell>
                <mxCell id="QN6NI6EVr7MsUQMu-n-5-2" value="" style="rounded=1;whiteSpace=wrap;html=1;fillColor=#E6D0DE;opacity=40;strokeColor=#000000;glass=0;strokeWidth=6;fontStyle=1" parent="1" vertex="1">
                    <mxGeometry x="-50" y="790" width="1410" height="310" as="geometry"/>
                </mxCell>
                <mxCell id="QN6NI6EVr7MsUQMu-n-5-3" value="" style="rounded=1;whiteSpace=wrap;html=1;fillColor=#fff2cc;opacity=40;strokeColor=#000000;glass=0;strokeWidth=6;fontStyle=1" parent="1" vertex="1">
                    <mxGeometry x="-50" y="90" width="1410" height="170" as="geometry"/>
                </mxCell>
                <mxCell id="QN6NI6EVr7MsUQMu-n-5-4" value="" style="rounded=1;whiteSpace=wrap;html=1;fillColor=#FFCCCC;opacity=40;strokeColor=#000000;glass=0;strokeWidth=6;fontStyle=1" parent="1" vertex="1">
                    <mxGeometry x="-50" y="260" width="1410" height="170" as="geometry"/>
                </mxCell>
                <mxCell id="QN6NI6EVr7MsUQMu-n-5-5" value="" style="rounded=1;whiteSpace=wrap;html=1;fillColor=#d5e8d4;opacity=40;strokeColor=#000000;glass=0;strokeWidth=6;fontStyle=1" parent="1" vertex="1">
                    <mxGeometry x="-50" y="-290" width="1410" height="380" as="geometry"/>
                </mxCell>
                <mxCell id="QN6NI6EVr7MsUQMu-n-5-6" style="edgeStyle=orthogonalEdgeStyle;rounded=0;orthogonalLoop=1;jettySize=auto;html=1;entryX=0.063;entryY=-0.004;entryDx=0;entryDy=0;entryPerimeter=0;strokeWidth=4;strokeColor=#000000;fontStyle=1" parent="1" source="QN6NI6EVr7MsUQMu-n-5-7" target="QN6NI6EVr7MsUQMu-n-5-9" edge="1">
                    <mxGeometry relative="1" as="geometry"/>
                </mxCell>
                <mxCell id="QN6NI6EVr7MsUQMu-n-5-7" value="" style="whiteSpace=wrap;html=1;aspect=fixed;fillColor=#d5e8d4;strokeColor=#000000;strokeWidth=4;fontStyle=1" parent="1" vertex="1">
                    <mxGeometry x="460" y="-220" width="80" height="80" as="geometry"/>
                </mxCell>
                <mxCell id="QN6NI6EVr7MsUQMu-n-5-8" value="" style="group;strokeWidth=4;strokeColor=#000000;fontStyle=1" parent="1" vertex="1" connectable="0">
                    <mxGeometry x="450" y="-20" width="800" height="40" as="geometry"/>
                </mxCell>
                <mxCell id="QN6NI6EVr7MsUQMu-n-5-9" value="" style="rounded=0;whiteSpace=wrap;html=1;fillColor=#CCFFFF;strokeWidth=4;strokeColor=#000000;fontStyle=1" parent="QN6NI6EVr7MsUQMu-n-5-8" vertex="1">
                    <mxGeometry width="800" height="40" as="geometry"/>
                </mxCell>
                <mxCell id="QN6NI6EVr7MsUQMu-n-5-10" value="" style="group;strokeWidth=4;strokeColor=none;fontStyle=1" parent="QN6NI6EVr7MsUQMu-n-5-8" vertex="1" connectable="0">
                    <mxGeometry x="360.0049781659389" y="10" width="76.85589519650655" height="20" as="geometry"/>
                </mxCell>
                <mxCell id="QN6NI6EVr7MsUQMu-n-5-11" value="" style="endArrow=none;html=1;rounded=0;strokeWidth=4;strokeColor=#000000;fontStyle=1" parent="QN6NI6EVr7MsUQMu-n-5-10" edge="1">
                    <mxGeometry width="50" height="50" relative="1" as="geometry">
                        <mxPoint as="sourcePoint"/>
                        <mxPoint x="29.888403687530325" as="targetPoint"/>
                    </mxGeometry>
                </mxCell>
                <mxCell id="QN6NI6EVr7MsUQMu-n-5-12" value="" style="endArrow=none;html=1;rounded=0;strokeWidth=4;strokeColor=#000000;fontStyle=1" parent="QN6NI6EVr7MsUQMu-n-5-10" edge="1">
                    <mxGeometry width="50" height="50" relative="1" as="geometry">
                        <mxPoint x="29.888403687530325" as="sourcePoint"/>
                        <mxPoint x="46.96749150897623" y="20" as="targetPoint"/>
                    </mxGeometry>
                </mxCell>
                <mxCell id="QN6NI6EVr7MsUQMu-n-5-13" value="" style="endArrow=none;html=1;rounded=0;strokeWidth=4;strokeColor=#000000;fontStyle=1" parent="QN6NI6EVr7MsUQMu-n-5-10" edge="1">
                    <mxGeometry width="50" height="50" relative="1" as="geometry">
                        <mxPoint x="29.888403687530325" y="20" as="sourcePoint"/>
                        <mxPoint x="46.96749150897623" as="targetPoint"/>
                    </mxGeometry>
                </mxCell>
                <mxCell id="QN6NI6EVr7MsUQMu-n-5-14" value="" style="endArrow=none;html=1;rounded=0;strokeWidth=4;strokeColor=#000000;fontStyle=1" parent="QN6NI6EVr7MsUQMu-n-5-10" edge="1">
                    <mxGeometry width="50" height="50" relative="1" as="geometry">
                        <mxPoint x="46.96749150897623" as="sourcePoint"/>
                        <mxPoint x="76.85589519650655" as="targetPoint"/>
                    </mxGeometry>
                </mxCell>
                <mxCell id="QN6NI6EVr7MsUQMu-n-5-15" value="" style="endArrow=none;html=1;rounded=0;strokeWidth=4;strokeColor=#000000;fontStyle=1" parent="QN6NI6EVr7MsUQMu-n-5-10" edge="1">
                    <mxGeometry width="50" height="50" relative="1" as="geometry">
                        <mxPoint x="46.96749150897623" y="20" as="sourcePoint"/>
                        <mxPoint x="76.85589519650655" y="20" as="targetPoint"/>
                    </mxGeometry>
                </mxCell>
                <mxCell id="QN6NI6EVr7MsUQMu-n-5-16" value="" style="endArrow=none;html=1;rounded=0;strokeWidth=4;strokeColor=#000000;fontStyle=1" parent="QN6NI6EVr7MsUQMu-n-5-10" edge="1">
                    <mxGeometry width="50" height="50" relative="1" as="geometry">
                        <mxPoint y="20" as="sourcePoint"/>
                        <mxPoint x="29.888403687530325" y="20" as="targetPoint"/>
                    </mxGeometry>
                </mxCell>
                <mxCell id="QN6NI6EVr7MsUQMu-n-5-17" style="edgeStyle=orthogonalEdgeStyle;rounded=0;orthogonalLoop=1;jettySize=auto;html=1;entryX=0.226;entryY=0.033;entryDx=0;entryDy=0;entryPerimeter=0;strokeWidth=4;strokeColor=#000000;fontStyle=1" parent="1" source="QN6NI6EVr7MsUQMu-n-5-18" target="QN6NI6EVr7MsUQMu-n-5-9" edge="1">
                    <mxGeometry relative="1" as="geometry"/>
                </mxCell>
                <mxCell id="QN6NI6EVr7MsUQMu-n-5-18" value="" style="whiteSpace=wrap;html=1;aspect=fixed;fillColor=#d5e8d4;strokeColor=#000000;strokeWidth=4;fontStyle=1" parent="1" vertex="1">
                    <mxGeometry x="590" y="-220" width="80" height="80" as="geometry"/>
                </mxCell>
                <mxCell id="QN6NI6EVr7MsUQMu-n-5-19" style="edgeStyle=orthogonalEdgeStyle;rounded=0;orthogonalLoop=1;jettySize=auto;html=1;entryX=0.388;entryY=0.003;entryDx=0;entryDy=0;entryPerimeter=0;strokeWidth=4;strokeColor=#000000;fontStyle=1" parent="1" source="QN6NI6EVr7MsUQMu-n-5-20" target="QN6NI6EVr7MsUQMu-n-5-9" edge="1">
                    <mxGeometry relative="1" as="geometry"/>
                </mxCell>
                <mxCell id="QN6NI6EVr7MsUQMu-n-5-20" value="" style="whiteSpace=wrap;html=1;aspect=fixed;fillColor=#d5e8d4;strokeColor=#000000;strokeWidth=4;fontStyle=1" parent="1" vertex="1">
                    <mxGeometry x="720" y="-220" width="80" height="80" as="geometry"/>
                </mxCell>
                <mxCell id="QN6NI6EVr7MsUQMu-n-5-21" style="edgeStyle=orthogonalEdgeStyle;rounded=0;orthogonalLoop=1;jettySize=auto;html=1;entryX=0.55;entryY=-0.041;entryDx=0;entryDy=0;entryPerimeter=0;strokeWidth=4;strokeColor=#000000;fontStyle=1" parent="1" source="QN6NI6EVr7MsUQMu-n-5-22" target="QN6NI6EVr7MsUQMu-n-5-9" edge="1">
                    <mxGeometry relative="1" as="geometry"/>
                </mxCell>
                <mxCell id="QN6NI6EVr7MsUQMu-n-5-22" value="" style="whiteSpace=wrap;html=1;aspect=fixed;fillColor=#d5e8d4;strokeColor=#000000;strokeWidth=4;fontStyle=1" parent="1" vertex="1">
                    <mxGeometry x="850" y="-220" width="80" height="80" as="geometry"/>
                </mxCell>
                <mxCell id="QN6NI6EVr7MsUQMu-n-5-23" value="" style="endArrow=none;dashed=1;html=1;dashPattern=1 3;strokeWidth=4;rounded=0;strokeColor=#000000;fontStyle=1" parent="1" edge="1">
                    <mxGeometry width="50" height="50" relative="1" as="geometry">
                        <mxPoint x="950" y="-170" as="sourcePoint"/>
                        <mxPoint x="1220" y="-170" as="targetPoint"/>
                    </mxGeometry>
                </mxCell>
                <mxCell id="QN6NI6EVr7MsUQMu-n-5-24" value="" style="whiteSpace=wrap;html=1;aspect=fixed;fillColor=#fff2cc;strokeColor=#000000;rotation=90;strokeWidth=4;fontStyle=1" parent="1" vertex="1">
                    <mxGeometry x="670" y="170" width="40" height="40" as="geometry"/>
                </mxCell>
                <mxCell id="QN6NI6EVr7MsUQMu-n-5-25" value="" style="whiteSpace=wrap;html=1;aspect=fixed;fillColor=#fff2cc;strokeColor=#000000;rotation=90;strokeWidth=4;fontStyle=1" parent="1" vertex="1">
                    <mxGeometry x="710" y="170" width="40" height="40" as="geometry"/>
                </mxCell>
                <mxCell id="QN6NI6EVr7MsUQMu-n-5-26" style="edgeStyle=orthogonalEdgeStyle;rounded=0;orthogonalLoop=1;jettySize=auto;html=1;entryX=1;entryY=0.5;entryDx=0;entryDy=0;strokeWidth=4;strokeColor=#000000;fontStyle=1" parent="1" source="QN6NI6EVr7MsUQMu-n-5-27" target="QN6NI6EVr7MsUQMu-n-5-38" edge="1">
                    <mxGeometry relative="1" as="geometry"/>
                </mxCell>
                <mxCell id="QN6NI6EVr7MsUQMu-n-5-27" value="" style="whiteSpace=wrap;html=1;aspect=fixed;fillColor=#fff2cc;strokeColor=#000000;rotation=90;strokeWidth=4;fontStyle=1" parent="1" vertex="1">
                    <mxGeometry x="590" y="170" width="40" height="40" as="geometry"/>
                </mxCell>
                <mxCell id="QN6NI6EVr7MsUQMu-n-5-28" value="" style="endArrow=none;dashed=1;html=1;dashPattern=1 3;strokeWidth=4;rounded=0;strokeColor=#000000;fontStyle=1" parent="1" edge="1">
                    <mxGeometry width="50" height="50" relative="1" as="geometry">
                        <mxPoint x="640" y="189.92999999999938" as="sourcePoint"/>
                        <mxPoint x="660" y="189.92999999999938" as="targetPoint"/>
                    </mxGeometry>
                </mxCell>
                <mxCell id="QN6NI6EVr7MsUQMu-n-5-29" style="edgeStyle=orthogonalEdgeStyle;rounded=0;orthogonalLoop=1;jettySize=auto;html=1;entryX=1;entryY=0.5;entryDx=0;entryDy=0;strokeWidth=4;strokeColor=#000000;fontStyle=1" parent="1" source="QN6NI6EVr7MsUQMu-n-5-64" target="QN6NI6EVr7MsUQMu-n-5-25" edge="1">
                    <mxGeometry relative="1" as="geometry">
                        <Array as="points">
                            <mxPoint x="730" y="370"/>
                        </Array>
                    </mxGeometry>
                </mxCell>
                <mxCell id="QN6NI6EVr7MsUQMu-n-5-30" value="" style="whiteSpace=wrap;html=1;aspect=fixed;fillColor=#fff2cc;strokeColor=#000000;rotation=90;strokeWidth=4;fontStyle=1" parent="1" vertex="1">
                    <mxGeometry x="950" y="170" width="40" height="40" as="geometry"/>
                </mxCell>
                <mxCell id="QN6NI6EVr7MsUQMu-n-5-31" value="" style="whiteSpace=wrap;html=1;aspect=fixed;fillColor=#fff2cc;strokeColor=#000000;rotation=90;strokeWidth=4;fontStyle=1" parent="1" vertex="1">
                    <mxGeometry x="990" y="170" width="40" height="40" as="geometry"/>
                </mxCell>
                <mxCell id="QN6NI6EVr7MsUQMu-n-5-32" style="edgeStyle=orthogonalEdgeStyle;rounded=0;orthogonalLoop=1;jettySize=auto;html=1;entryX=1;entryY=0.5;entryDx=0;entryDy=0;strokeWidth=4;strokeColor=#000000;fontStyle=1" parent="1" source="QN6NI6EVr7MsUQMu-n-5-33" target="QN6NI6EVr7MsUQMu-n-5-66" edge="1">
                    <mxGeometry relative="1" as="geometry"/>
                </mxCell>
                <mxCell id="QN6NI6EVr7MsUQMu-n-5-33" value="" style="whiteSpace=wrap;html=1;aspect=fixed;fillColor=#fff2cc;strokeColor=#000000;rotation=90;strokeWidth=4;fontStyle=1" parent="1" vertex="1">
                    <mxGeometry x="870" y="170" width="40" height="40" as="geometry"/>
                </mxCell>
                <mxCell id="QN6NI6EVr7MsUQMu-n-5-34" value="" style="endArrow=none;dashed=1;html=1;dashPattern=1 3;strokeWidth=4;rounded=0;strokeColor=#000000;fontStyle=1" parent="1" edge="1">
                    <mxGeometry width="50" height="50" relative="1" as="geometry">
                        <mxPoint x="920" y="189.92999999999938" as="sourcePoint"/>
                        <mxPoint x="940" y="189.92999999999938" as="targetPoint"/>
                    </mxGeometry>
                </mxCell>
                <mxCell id="QN6NI6EVr7MsUQMu-n-5-35" style="edgeStyle=orthogonalEdgeStyle;rounded=0;orthogonalLoop=1;jettySize=auto;html=1;entryX=1;entryY=0.5;entryDx=0;entryDy=0;strokeWidth=4;strokeColor=#000000;fontStyle=1" parent="1" source="QN6NI6EVr7MsUQMu-n-5-92" target="QN6NI6EVr7MsUQMu-n-5-31" edge="1">
                    <mxGeometry relative="1" as="geometry">
                        <Array as="points">
                            <mxPoint x="1010" y="370"/>
                        </Array>
                    </mxGeometry>
                </mxCell>
                <mxCell id="QN6NI6EVr7MsUQMu-n-5-36" value="" style="whiteSpace=wrap;html=1;aspect=fixed;fillColor=#f8cecc;strokeColor=#000000;strokeWidth=4;fontStyle=1" parent="1" vertex="1">
                    <mxGeometry x="470" y="350" width="40" height="40" as="geometry"/>
                </mxCell>
                <mxCell id="QN6NI6EVr7MsUQMu-n-5-37" value="" style="whiteSpace=wrap;html=1;aspect=fixed;fillColor=#f8cecc;strokeColor=#000000;strokeWidth=4;fontStyle=1" parent="1" vertex="1">
                    <mxGeometry x="510" y="350" width="40" height="40" as="geometry"/>
                </mxCell>
                <mxCell id="QN6NI6EVr7MsUQMu-n-5-38" value="" style="whiteSpace=wrap;html=1;aspect=fixed;fillColor=#f8cecc;strokeColor=#000000;strokeWidth=4;fontStyle=1" parent="1" vertex="1">
                    <mxGeometry x="550" y="350" width="40" height="40" as="geometry"/>
                </mxCell>
                <mxCell id="QN6NI6EVr7MsUQMu-n-5-39" style="edgeStyle=orthogonalEdgeStyle;rounded=0;jumpStyle=arc;orthogonalLoop=1;jettySize=auto;html=1;entryX=0;entryY=0;entryDx=0;entryDy=0;strokeWidth=4;strokeColor=#000000;fontStyle=1" parent="1" source="QN6NI6EVr7MsUQMu-n-5-40" target="QN6NI6EVr7MsUQMu-n-5-310" edge="1">
                    <mxGeometry relative="1" as="geometry">
                        <Array as="points">
                            <mxPoint x="650" y="980"/>
                            <mxPoint x="909" y="980"/>
                        </Array>
                    </mxGeometry>
                </mxCell>
                <mxCell id="QN6NI6EVr7MsUQMu-n-5-40" value="" style="ellipse;whiteSpace=wrap;html=1;aspect=fixed;fillColor=#e1d5e7;strokeColor=#000000;strokeWidth=4;fontStyle=1" parent="1" vertex="1">
                    <mxGeometry x="620" y="896.75" width="60" height="60" as="geometry"/>
                </mxCell>
                <mxCell id="QN6NI6EVr7MsUQMu-n-5-41" value="" style="endArrow=none;html=1;rounded=0;strokeColor=#000000;entryX=0.5;entryY=0;entryDx=0;entryDy=0;exitX=0.5;exitY=1;exitDx=0;exitDy=0;strokeWidth=4;fontStyle=1" parent="1" source="QN6NI6EVr7MsUQMu-n-5-40" target="QN6NI6EVr7MsUQMu-n-5-40" edge="1">
                    <mxGeometry width="50" height="50" relative="1" as="geometry">
                        <mxPoint x="610" y="871.25" as="sourcePoint"/>
                        <mxPoint x="660" y="821.25" as="targetPoint"/>
                    </mxGeometry>
                </mxCell>
                <mxCell id="QN6NI6EVr7MsUQMu-n-5-42" value="" style="endArrow=none;html=1;rounded=0;strokeColor=#000000;entryX=0;entryY=0.5;entryDx=0;entryDy=0;exitX=1;exitY=0.5;exitDx=0;exitDy=0;strokeWidth=4;fontStyle=1" parent="1" source="QN6NI6EVr7MsUQMu-n-5-40" target="QN6NI6EVr7MsUQMu-n-5-40" edge="1">
                    <mxGeometry width="50" height="50" relative="1" as="geometry">
                        <mxPoint x="660" y="771.25" as="sourcePoint"/>
                        <mxPoint x="660" y="711.25" as="targetPoint"/>
                    </mxGeometry>
                </mxCell>
                <mxCell id="QN6NI6EVr7MsUQMu-n-5-43" value="" style="ellipse;whiteSpace=wrap;html=1;aspect=fixed;fillColor=#67AB9F;strokeWidth=4;strokeColor=#000000;fontStyle=1" parent="1" vertex="1">
                    <mxGeometry x="470" y="560" width="40" height="40" as="geometry"/>
                </mxCell>
                <mxCell id="QN6NI6EVr7MsUQMu-n-5-44" value="" style="endArrow=none;html=1;rounded=0;strokeColor=#000000;strokeWidth=4;exitX=0;exitY=0;exitDx=0;exitDy=0;entryX=1;entryY=1;entryDx=0;entryDy=0;fontStyle=1" parent="1" source="QN6NI6EVr7MsUQMu-n-5-43" target="QN6NI6EVr7MsUQMu-n-5-43" edge="1">
                    <mxGeometry width="50" height="50" relative="1" as="geometry">
                        <mxPoint x="525" y="628.75" as="sourcePoint"/>
                        <mxPoint x="550" y="597.5" as="targetPoint"/>
                    </mxGeometry>
                </mxCell>
                <mxCell id="QN6NI6EVr7MsUQMu-n-5-45" style="edgeStyle=orthogonalEdgeStyle;rounded=0;orthogonalLoop=1;jettySize=auto;html=1;entryX=0.5;entryY=0;entryDx=0;entryDy=0;strokeColor=#000000;strokeWidth=4;fontStyle=1" parent="1" source="QN6NI6EVr7MsUQMu-n-5-36" target="QN6NI6EVr7MsUQMu-n-5-43" edge="1">
                    <mxGeometry relative="1" as="geometry"/>
                </mxCell>
                <mxCell id="QN6NI6EVr7MsUQMu-n-5-46" value="" style="endArrow=none;html=1;rounded=0;strokeColor=#000000;strokeWidth=4;exitX=0;exitY=1;exitDx=0;exitDy=0;entryX=1;entryY=0;entryDx=0;entryDy=0;fontStyle=1" parent="1" source="QN6NI6EVr7MsUQMu-n-5-43" target="QN6NI6EVr7MsUQMu-n-5-43" edge="1">
                    <mxGeometry width="50" height="50" relative="1" as="geometry">
                        <mxPoint x="480.85786437626916" y="573.5723304703363" as="sourcePoint"/>
                        <mxPoint x="509.311484117605" y="608.7134181196966" as="targetPoint"/>
                    </mxGeometry>
                </mxCell>
                <mxCell id="QN6NI6EVr7MsUQMu-n-5-47" style="edgeStyle=orthogonalEdgeStyle;rounded=0;orthogonalLoop=1;jettySize=auto;html=1;entryX=0.5;entryY=1;entryDx=0;entryDy=0;strokeColor=#000000;strokeWidth=4;fontStyle=1" parent="1" source="QN6NI6EVr7MsUQMu-n-5-48" target="QN6NI6EVr7MsUQMu-n-5-43" edge="1">
                    <mxGeometry relative="1" as="geometry"/>
                </mxCell>
                <mxCell id="QN6NI6EVr7MsUQMu-n-5-48" value="" style="whiteSpace=wrap;html=1;aspect=fixed;fillColor=#dae8fc;strokeColor=#000000;strokeWidth=4;fontStyle=1" parent="1" vertex="1">
                    <mxGeometry x="476.25" y="623.75" width="27.5" height="27.5" as="geometry"/>
                </mxCell>
                <mxCell id="QN6NI6EVr7MsUQMu-n-5-49" value="" style="ellipse;whiteSpace=wrap;html=1;aspect=fixed;fillColor=#67AB9F;strokeWidth=4;strokeColor=#000000;fontStyle=1" parent="1" vertex="1">
                    <mxGeometry x="510" y="617.5" width="40" height="40" as="geometry"/>
                </mxCell>
                <mxCell id="QN6NI6EVr7MsUQMu-n-5-50" value="" style="endArrow=none;html=1;rounded=0;strokeColor=#000000;strokeWidth=4;exitX=0;exitY=0;exitDx=0;exitDy=0;entryX=1;entryY=1;entryDx=0;entryDy=0;fontStyle=1" parent="1" edge="1">
                    <mxGeometry width="50" height="50" relative="1" as="geometry">
                        <mxPoint x="515.8578643762694" y="623.3578643762685" as="sourcePoint"/>
                        <mxPoint x="544.1421356237315" y="651.6421356237315" as="targetPoint"/>
                    </mxGeometry>
                </mxCell>
                <mxCell id="QN6NI6EVr7MsUQMu-n-5-51" value="" style="endArrow=none;html=1;rounded=0;strokeColor=#000000;strokeWidth=4;exitX=0;exitY=1;exitDx=0;exitDy=0;entryX=1;entryY=0;entryDx=0;entryDy=0;fontStyle=1" parent="1" edge="1">
                    <mxGeometry width="50" height="50" relative="1" as="geometry">
                        <mxPoint x="515.8578643762694" y="651.6421356237306" as="sourcePoint"/>
                        <mxPoint x="544.1421356237315" y="623.3578643762685" as="targetPoint"/>
                    </mxGeometry>
                </mxCell>
                <mxCell id="QN6NI6EVr7MsUQMu-n-5-52" style="edgeStyle=orthogonalEdgeStyle;rounded=0;orthogonalLoop=1;jettySize=auto;html=1;entryX=0.5;entryY=1;entryDx=0;entryDy=0;strokeColor=#000000;strokeWidth=4;exitX=0.5;exitY=0;exitDx=0;exitDy=0;fontStyle=1" parent="1" source="QN6NI6EVr7MsUQMu-n-5-57" edge="1">
                    <mxGeometry relative="1" as="geometry">
                        <mxPoint x="529.9999999999998" y="690" as="sourcePoint"/>
                        <mxPoint x="530" y="657.5" as="targetPoint"/>
                    </mxGeometry>
                </mxCell>
                <mxCell id="QN6NI6EVr7MsUQMu-n-5-53" value="" style="ellipse;whiteSpace=wrap;html=1;aspect=fixed;fillColor=#67AB9F;strokeWidth=4;strokeColor=#000000;fontStyle=1" parent="1" vertex="1">
                    <mxGeometry x="550" y="680" width="40" height="40" as="geometry"/>
                </mxCell>
                <mxCell id="QN6NI6EVr7MsUQMu-n-5-54" value="" style="endArrow=none;html=1;rounded=0;strokeColor=#000000;strokeWidth=4;exitX=0;exitY=0;exitDx=0;exitDy=0;entryX=1;entryY=1;entryDx=0;entryDy=0;fontStyle=1" parent="1" source="QN6NI6EVr7MsUQMu-n-5-53" target="QN6NI6EVr7MsUQMu-n-5-53" edge="1">
                    <mxGeometry width="50" height="50" relative="1" as="geometry">
                        <mxPoint x="605" y="748.75" as="sourcePoint"/>
                        <mxPoint x="630" y="717.5" as="targetPoint"/>
                    </mxGeometry>
                </mxCell>
                <mxCell id="QN6NI6EVr7MsUQMu-n-5-55" value="" style="endArrow=none;html=1;rounded=0;strokeColor=#000000;strokeWidth=4;exitX=0;exitY=1;exitDx=0;exitDy=0;entryX=1;entryY=0;entryDx=0;entryDy=0;fontStyle=1" parent="1" source="QN6NI6EVr7MsUQMu-n-5-53" target="QN6NI6EVr7MsUQMu-n-5-53" edge="1">
                    <mxGeometry width="50" height="50" relative="1" as="geometry">
                        <mxPoint x="560.8578643762692" y="693.5723304703363" as="sourcePoint"/>
                        <mxPoint x="589.311484117605" y="728.7134181196966" as="targetPoint"/>
                    </mxGeometry>
                </mxCell>
                <mxCell id="QN6NI6EVr7MsUQMu-n-5-56" style="edgeStyle=orthogonalEdgeStyle;rounded=0;orthogonalLoop=1;jettySize=auto;html=1;entryX=0.5;entryY=1;entryDx=0;entryDy=0;strokeColor=#000000;strokeWidth=4;exitX=0.5;exitY=0;exitDx=0;exitDy=0;fontStyle=1" parent="1" source="QN6NI6EVr7MsUQMu-n-5-58" target="QN6NI6EVr7MsUQMu-n-5-53" edge="1">
                    <mxGeometry relative="1" as="geometry">
                        <mxPoint x="569.9999999999998" y="742.5" as="sourcePoint"/>
                    </mxGeometry>
                </mxCell>
                <mxCell id="QN6NI6EVr7MsUQMu-n-5-57" value="" style="whiteSpace=wrap;html=1;aspect=fixed;fillColor=#dae8fc;strokeColor=#000000;strokeWidth=4;fontStyle=1" parent="1" vertex="1">
                    <mxGeometry x="516.25" y="686.25" width="27.5" height="27.5" as="geometry"/>
                </mxCell>
                <mxCell id="QN6NI6EVr7MsUQMu-n-5-58" value="" style="whiteSpace=wrap;html=1;aspect=fixed;fillColor=#dae8fc;strokeColor=#000000;strokeWidth=4;fontStyle=1" parent="1" vertex="1">
                    <mxGeometry x="556.25" y="750" width="27.5" height="27.5" as="geometry"/>
                </mxCell>
                <mxCell id="QN6NI6EVr7MsUQMu-n-5-59" style="edgeStyle=orthogonalEdgeStyle;rounded=0;orthogonalLoop=1;jettySize=auto;html=1;entryX=0.5;entryY=0;entryDx=0;entryDy=0;strokeColor=#000000;strokeWidth=4;fontStyle=1" parent="1" source="QN6NI6EVr7MsUQMu-n-5-37" target="QN6NI6EVr7MsUQMu-n-5-49" edge="1">
                    <mxGeometry relative="1" as="geometry"/>
                </mxCell>
                <mxCell id="QN6NI6EVr7MsUQMu-n-5-60" style="edgeStyle=orthogonalEdgeStyle;rounded=0;orthogonalLoop=1;jettySize=auto;html=1;entryX=0.5;entryY=0;entryDx=0;entryDy=0;strokeColor=#000000;strokeWidth=4;fontStyle=1" parent="1" source="QN6NI6EVr7MsUQMu-n-5-38" target="QN6NI6EVr7MsUQMu-n-5-53" edge="1">
                    <mxGeometry relative="1" as="geometry"/>
                </mxCell>
                <mxCell id="QN6NI6EVr7MsUQMu-n-5-61" style="edgeStyle=orthogonalEdgeStyle;rounded=0;orthogonalLoop=1;jettySize=auto;html=1;entryX=1;entryY=0;entryDx=0;entryDy=0;strokeWidth=4;jumpStyle=arc;strokeColor=#000000;fontStyle=1" parent="1" source="QN6NI6EVr7MsUQMu-n-5-43" target="QN6NI6EVr7MsUQMu-n-5-40" edge="1">
                    <mxGeometry relative="1" as="geometry"/>
                </mxCell>
                <mxCell id="QN6NI6EVr7MsUQMu-n-5-62" style="edgeStyle=orthogonalEdgeStyle;rounded=0;orthogonalLoop=1;jettySize=auto;html=1;entryX=0.074;entryY=0.196;entryDx=0;entryDy=0;entryPerimeter=0;strokeWidth=4;jumpStyle=arc;strokeColor=#000000;fontStyle=1" parent="1" source="QN6NI6EVr7MsUQMu-n-5-53" target="QN6NI6EVr7MsUQMu-n-5-40" edge="1">
                    <mxGeometry relative="1" as="geometry"/>
                </mxCell>
                <mxCell id="QN6NI6EVr7MsUQMu-n-5-63" style="edgeStyle=orthogonalEdgeStyle;rounded=0;orthogonalLoop=1;jettySize=auto;html=1;entryX=0.5;entryY=0;entryDx=0;entryDy=0;strokeWidth=4;jumpStyle=arc;strokeColor=#000000;fontStyle=1" parent="1" source="QN6NI6EVr7MsUQMu-n-5-49" target="QN6NI6EVr7MsUQMu-n-5-40" edge="1">
                    <mxGeometry relative="1" as="geometry">
                        <mxPoint x="549.9999942607888" y="637.5151515151515" as="sourcePoint"/>
                        <mxPoint x="650" y="723.7500000000005" as="targetPoint"/>
                        <Array as="points">
                            <mxPoint x="650" y="638"/>
                        </Array>
                    </mxGeometry>
                </mxCell>
                <mxCell id="QN6NI6EVr7MsUQMu-n-5-64" value="" style="whiteSpace=wrap;html=1;aspect=fixed;fillColor=#f8cecc;strokeColor=#000000;strokeWidth=4;fontStyle=1" parent="1" vertex="1">
                    <mxGeometry x="750" y="350" width="40" height="40" as="geometry"/>
                </mxCell>
                <mxCell id="QN6NI6EVr7MsUQMu-n-5-65" value="" style="whiteSpace=wrap;html=1;aspect=fixed;fillColor=#f8cecc;strokeColor=#000000;strokeWidth=4;fontStyle=1" parent="1" vertex="1">
                    <mxGeometry x="790" y="350" width="40" height="40" as="geometry"/>
                </mxCell>
                <mxCell id="QN6NI6EVr7MsUQMu-n-5-66" value="" style="whiteSpace=wrap;html=1;aspect=fixed;fillColor=#f8cecc;strokeColor=#000000;strokeWidth=4;fontStyle=1" parent="1" vertex="1">
                    <mxGeometry x="830" y="350" width="40" height="40" as="geometry"/>
                </mxCell>
                <mxCell id="QN6NI6EVr7MsUQMu-n-5-67" style="edgeStyle=orthogonalEdgeStyle;rounded=0;jumpStyle=arc;orthogonalLoop=1;jettySize=auto;html=1;strokeWidth=4;entryX=0.5;entryY=0;entryDx=0;entryDy=0;strokeColor=#000000;fontStyle=1" parent="1" source="QN6NI6EVr7MsUQMu-n-5-68" target="QN6NI6EVr7MsUQMu-n-5-310" edge="1">
                    <mxGeometry relative="1" as="geometry">
                        <mxPoint x="930" y="970.0000000000005" as="targetPoint"/>
                    </mxGeometry>
                </mxCell>
                <mxCell id="QN6NI6EVr7MsUQMu-n-5-68" value="" style="ellipse;whiteSpace=wrap;html=1;aspect=fixed;fillColor=#e1d5e7;strokeColor=#000000;strokeWidth=4;fontStyle=1" parent="1" vertex="1">
                    <mxGeometry x="900" y="896.75" width="60" height="60" as="geometry"/>
                </mxCell>
                <mxCell id="QN6NI6EVr7MsUQMu-n-5-69" value="" style="endArrow=none;html=1;rounded=0;strokeColor=#000000;entryX=0.5;entryY=0;entryDx=0;entryDy=0;exitX=0.5;exitY=1;exitDx=0;exitDy=0;strokeWidth=4;fontStyle=1" parent="1" source="QN6NI6EVr7MsUQMu-n-5-68" target="QN6NI6EVr7MsUQMu-n-5-68" edge="1">
                    <mxGeometry width="50" height="50" relative="1" as="geometry">
                        <mxPoint x="890" y="847.5" as="sourcePoint"/>
                        <mxPoint x="940" y="797.5" as="targetPoint"/>
                    </mxGeometry>
                </mxCell>
                <mxCell id="QN6NI6EVr7MsUQMu-n-5-70" value="" style="endArrow=none;html=1;rounded=0;strokeColor=#000000;entryX=0;entryY=0.5;entryDx=0;entryDy=0;exitX=1;exitY=0.5;exitDx=0;exitDy=0;strokeWidth=4;fontStyle=1" parent="1" source="QN6NI6EVr7MsUQMu-n-5-68" target="QN6NI6EVr7MsUQMu-n-5-68" edge="1">
                    <mxGeometry width="50" height="50" relative="1" as="geometry">
                        <mxPoint x="940" y="747.5" as="sourcePoint"/>
                        <mxPoint x="940" y="687.5" as="targetPoint"/>
                    </mxGeometry>
                </mxCell>
                <mxCell id="QN6NI6EVr7MsUQMu-n-5-71" value="" style="ellipse;whiteSpace=wrap;html=1;aspect=fixed;fillColor=#67AB9F;strokeWidth=4;strokeColor=#000000;fontStyle=1" parent="1" vertex="1">
                    <mxGeometry x="750" y="560" width="40" height="40" as="geometry"/>
                </mxCell>
                <mxCell id="QN6NI6EVr7MsUQMu-n-5-72" value="" style="endArrow=none;html=1;rounded=0;strokeColor=#000000;strokeWidth=4;exitX=0;exitY=0;exitDx=0;exitDy=0;entryX=1;entryY=1;entryDx=0;entryDy=0;fontStyle=1" parent="1" source="QN6NI6EVr7MsUQMu-n-5-71" target="QN6NI6EVr7MsUQMu-n-5-71" edge="1">
                    <mxGeometry width="50" height="50" relative="1" as="geometry">
                        <mxPoint x="805" y="628.75" as="sourcePoint"/>
                        <mxPoint x="830" y="597.5" as="targetPoint"/>
                    </mxGeometry>
                </mxCell>
                <mxCell id="QN6NI6EVr7MsUQMu-n-5-73" style="edgeStyle=orthogonalEdgeStyle;rounded=0;orthogonalLoop=1;jettySize=auto;html=1;entryX=0.5;entryY=0;entryDx=0;entryDy=0;strokeColor=#000000;strokeWidth=4;fontStyle=1" parent="1" source="QN6NI6EVr7MsUQMu-n-5-64" target="QN6NI6EVr7MsUQMu-n-5-71" edge="1">
                    <mxGeometry relative="1" as="geometry"/>
                </mxCell>
                <mxCell id="QN6NI6EVr7MsUQMu-n-5-74" value="" style="endArrow=none;html=1;rounded=0;strokeColor=#000000;strokeWidth=4;exitX=0;exitY=1;exitDx=0;exitDy=0;entryX=1;entryY=0;entryDx=0;entryDy=0;fontStyle=1" parent="1" source="QN6NI6EVr7MsUQMu-n-5-71" target="QN6NI6EVr7MsUQMu-n-5-71" edge="1">
                    <mxGeometry width="50" height="50" relative="1" as="geometry">
                        <mxPoint x="760.8578643762692" y="573.5723304703363" as="sourcePoint"/>
                        <mxPoint x="789.311484117605" y="608.7134181196966" as="targetPoint"/>
                    </mxGeometry>
                </mxCell>
                <mxCell id="QN6NI6EVr7MsUQMu-n-5-75" style="edgeStyle=orthogonalEdgeStyle;rounded=0;orthogonalLoop=1;jettySize=auto;html=1;entryX=0.5;entryY=1;entryDx=0;entryDy=0;strokeColor=#000000;strokeWidth=4;fontStyle=1" parent="1" source="QN6NI6EVr7MsUQMu-n-5-76" target="QN6NI6EVr7MsUQMu-n-5-71" edge="1">
                    <mxGeometry relative="1" as="geometry"/>
                </mxCell>
                <mxCell id="QN6NI6EVr7MsUQMu-n-5-76" value="" style="whiteSpace=wrap;html=1;aspect=fixed;fillColor=#dae8fc;strokeColor=#000000;strokeWidth=4;fontStyle=1" parent="1" vertex="1">
                    <mxGeometry x="756.25" y="623.75" width="27.5" height="27.5" as="geometry"/>
                </mxCell>
                <mxCell id="QN6NI6EVr7MsUQMu-n-5-77" value="" style="ellipse;whiteSpace=wrap;html=1;aspect=fixed;fillColor=#67AB9F;strokeWidth=4;strokeColor=#000000;fontStyle=1" parent="1" vertex="1">
                    <mxGeometry x="790" y="617.5" width="40" height="40" as="geometry"/>
                </mxCell>
                <mxCell id="QN6NI6EVr7MsUQMu-n-5-78" value="" style="endArrow=none;html=1;rounded=0;strokeColor=#000000;strokeWidth=4;exitX=0;exitY=0;exitDx=0;exitDy=0;entryX=1;entryY=1;entryDx=0;entryDy=0;fontStyle=1" parent="1" edge="1">
                    <mxGeometry width="50" height="50" relative="1" as="geometry">
                        <mxPoint x="795.8578643762694" y="623.3578643762685" as="sourcePoint"/>
                        <mxPoint x="824.1421356237315" y="651.6421356237315" as="targetPoint"/>
                    </mxGeometry>
                </mxCell>
                <mxCell id="QN6NI6EVr7MsUQMu-n-5-79" value="" style="endArrow=none;html=1;rounded=0;strokeColor=#000000;strokeWidth=4;exitX=0;exitY=1;exitDx=0;exitDy=0;entryX=1;entryY=0;entryDx=0;entryDy=0;fontStyle=1" parent="1" edge="1">
                    <mxGeometry width="50" height="50" relative="1" as="geometry">
                        <mxPoint x="795.8578643762694" y="651.6421356237306" as="sourcePoint"/>
                        <mxPoint x="824.1421356237315" y="623.3578643762685" as="targetPoint"/>
                    </mxGeometry>
                </mxCell>
                <mxCell id="QN6NI6EVr7MsUQMu-n-5-80" style="edgeStyle=orthogonalEdgeStyle;rounded=0;orthogonalLoop=1;jettySize=auto;html=1;entryX=0.5;entryY=1;entryDx=0;entryDy=0;strokeColor=#000000;strokeWidth=4;exitX=0.5;exitY=0;exitDx=0;exitDy=0;fontStyle=1" parent="1" source="QN6NI6EVr7MsUQMu-n-5-85" edge="1">
                    <mxGeometry relative="1" as="geometry">
                        <mxPoint x="809.9999999999998" y="690" as="sourcePoint"/>
                        <mxPoint x="810" y="657.5" as="targetPoint"/>
                    </mxGeometry>
                </mxCell>
                <mxCell id="QN6NI6EVr7MsUQMu-n-5-81" value="" style="ellipse;whiteSpace=wrap;html=1;aspect=fixed;fillColor=#67AB9F;strokeWidth=4;strokeColor=#000000;fontStyle=1" parent="1" vertex="1">
                    <mxGeometry x="830" y="680" width="40" height="40" as="geometry"/>
                </mxCell>
                <mxCell id="QN6NI6EVr7MsUQMu-n-5-82" value="" style="endArrow=none;html=1;rounded=0;strokeColor=#000000;strokeWidth=4;exitX=0;exitY=0;exitDx=0;exitDy=0;entryX=1;entryY=1;entryDx=0;entryDy=0;fontStyle=1" parent="1" source="QN6NI6EVr7MsUQMu-n-5-81" target="QN6NI6EVr7MsUQMu-n-5-81" edge="1">
                    <mxGeometry width="50" height="50" relative="1" as="geometry">
                        <mxPoint x="885" y="748.75" as="sourcePoint"/>
                        <mxPoint x="910" y="717.5" as="targetPoint"/>
                    </mxGeometry>
                </mxCell>
                <mxCell id="QN6NI6EVr7MsUQMu-n-5-83" value="" style="endArrow=none;html=1;rounded=0;strokeColor=#000000;strokeWidth=4;exitX=0;exitY=1;exitDx=0;exitDy=0;entryX=1;entryY=0;entryDx=0;entryDy=0;fontStyle=1" parent="1" source="QN6NI6EVr7MsUQMu-n-5-81" target="QN6NI6EVr7MsUQMu-n-5-81" edge="1">
                    <mxGeometry width="50" height="50" relative="1" as="geometry">
                        <mxPoint x="840.8578643762692" y="693.5723304703363" as="sourcePoint"/>
                        <mxPoint x="869.311484117605" y="728.7134181196966" as="targetPoint"/>
                    </mxGeometry>
                </mxCell>
                <mxCell id="QN6NI6EVr7MsUQMu-n-5-84" style="edgeStyle=orthogonalEdgeStyle;rounded=0;orthogonalLoop=1;jettySize=auto;html=1;entryX=0.5;entryY=1;entryDx=0;entryDy=0;strokeColor=#000000;strokeWidth=4;exitX=0.5;exitY=0;exitDx=0;exitDy=0;fontStyle=1" parent="1" source="QN6NI6EVr7MsUQMu-n-5-86" target="QN6NI6EVr7MsUQMu-n-5-81" edge="1">
                    <mxGeometry relative="1" as="geometry">
                        <mxPoint x="849.9999999999998" y="742.5" as="sourcePoint"/>
                    </mxGeometry>
                </mxCell>
                <mxCell id="QN6NI6EVr7MsUQMu-n-5-85" value="" style="whiteSpace=wrap;html=1;aspect=fixed;fillColor=#dae8fc;strokeColor=#000000;strokeWidth=4;fontStyle=1" parent="1" vertex="1">
                    <mxGeometry x="796.25" y="686.25" width="27.5" height="27.5" as="geometry"/>
                </mxCell>
                <mxCell id="QN6NI6EVr7MsUQMu-n-5-86" value="" style="whiteSpace=wrap;html=1;aspect=fixed;fillColor=#dae8fc;strokeColor=#000000;strokeWidth=4;fontStyle=1" parent="1" vertex="1">
                    <mxGeometry x="836.25" y="750" width="27.5" height="27.5" as="geometry"/>
                </mxCell>
                <mxCell id="QN6NI6EVr7MsUQMu-n-5-87" style="edgeStyle=orthogonalEdgeStyle;rounded=0;orthogonalLoop=1;jettySize=auto;html=1;entryX=0.5;entryY=0;entryDx=0;entryDy=0;strokeColor=#000000;strokeWidth=4;fontStyle=1" parent="1" source="QN6NI6EVr7MsUQMu-n-5-65" target="QN6NI6EVr7MsUQMu-n-5-77" edge="1">
                    <mxGeometry relative="1" as="geometry"/>
                </mxCell>
                <mxCell id="QN6NI6EVr7MsUQMu-n-5-88" style="edgeStyle=orthogonalEdgeStyle;rounded=0;orthogonalLoop=1;jettySize=auto;html=1;entryX=0.5;entryY=0;entryDx=0;entryDy=0;strokeColor=#000000;strokeWidth=4;fontStyle=1" parent="1" source="QN6NI6EVr7MsUQMu-n-5-66" target="QN6NI6EVr7MsUQMu-n-5-81" edge="1">
                    <mxGeometry relative="1" as="geometry"/>
                </mxCell>
                <mxCell id="QN6NI6EVr7MsUQMu-n-5-89" style="edgeStyle=orthogonalEdgeStyle;rounded=0;jumpStyle=arc;orthogonalLoop=1;jettySize=auto;html=1;entryX=1;entryY=0;entryDx=0;entryDy=0;strokeWidth=4;strokeColor=#000000;fontStyle=1" parent="1" source="QN6NI6EVr7MsUQMu-n-5-71" target="QN6NI6EVr7MsUQMu-n-5-68" edge="1">
                    <mxGeometry relative="1" as="geometry"/>
                </mxCell>
                <mxCell id="QN6NI6EVr7MsUQMu-n-5-90" style="edgeStyle=orthogonalEdgeStyle;rounded=0;jumpStyle=arc;orthogonalLoop=1;jettySize=auto;html=1;entryX=0.5;entryY=0;entryDx=0;entryDy=0;strokeWidth=4;strokeColor=#000000;fontStyle=1" parent="1" source="QN6NI6EVr7MsUQMu-n-5-77" target="QN6NI6EVr7MsUQMu-n-5-68" edge="1">
                    <mxGeometry relative="1" as="geometry"/>
                </mxCell>
                <mxCell id="QN6NI6EVr7MsUQMu-n-5-91" style="edgeStyle=orthogonalEdgeStyle;rounded=0;jumpStyle=arc;orthogonalLoop=1;jettySize=auto;html=1;entryX=0;entryY=0;entryDx=0;entryDy=0;strokeWidth=4;strokeColor=#000000;fontStyle=1" parent="1" source="QN6NI6EVr7MsUQMu-n-5-81" target="QN6NI6EVr7MsUQMu-n-5-68" edge="1">
                    <mxGeometry relative="1" as="geometry"/>
                </mxCell>
                <mxCell id="QN6NI6EVr7MsUQMu-n-5-92" value="" style="whiteSpace=wrap;html=1;aspect=fixed;fillColor=#f8cecc;strokeColor=#000000;strokeWidth=4;fontStyle=1" parent="1" vertex="1">
                    <mxGeometry x="1030" y="350" width="40" height="40" as="geometry"/>
                </mxCell>
                <mxCell id="QN6NI6EVr7MsUQMu-n-5-93" value="" style="whiteSpace=wrap;html=1;aspect=fixed;fillColor=#f8cecc;strokeColor=#000000;strokeWidth=4;fontStyle=1" parent="1" vertex="1">
                    <mxGeometry x="1070" y="350" width="40" height="40" as="geometry"/>
                </mxCell>
                <mxCell id="QN6NI6EVr7MsUQMu-n-5-94" value="" style="whiteSpace=wrap;html=1;aspect=fixed;fillColor=#f8cecc;strokeColor=#000000;strokeWidth=4;fontStyle=1" parent="1" vertex="1">
                    <mxGeometry x="1110" y="350" width="40" height="40" as="geometry"/>
                </mxCell>
                <mxCell id="QN6NI6EVr7MsUQMu-n-5-95" style="edgeStyle=orthogonalEdgeStyle;rounded=0;jumpStyle=arc;orthogonalLoop=1;jettySize=auto;html=1;entryX=1;entryY=0;entryDx=0;entryDy=0;strokeWidth=4;strokeColor=#000000;fontStyle=1" parent="1" source="QN6NI6EVr7MsUQMu-n-5-96" target="QN6NI6EVr7MsUQMu-n-5-310" edge="1">
                    <mxGeometry relative="1" as="geometry">
                        <Array as="points">
                            <mxPoint x="1210" y="980"/>
                            <mxPoint x="951" y="980"/>
                        </Array>
                    </mxGeometry>
                </mxCell>
                <mxCell id="QN6NI6EVr7MsUQMu-n-5-96" value="" style="ellipse;whiteSpace=wrap;html=1;aspect=fixed;fillColor=#e1d5e7;strokeColor=#000000;strokeWidth=4;fontStyle=1" parent="1" vertex="1">
                    <mxGeometry x="1180" y="896.75" width="60" height="60" as="geometry"/>
                </mxCell>
                <mxCell id="QN6NI6EVr7MsUQMu-n-5-97" value="" style="endArrow=none;html=1;rounded=0;strokeColor=#000000;entryX=0.5;entryY=0;entryDx=0;entryDy=0;exitX=0.5;exitY=1;exitDx=0;exitDy=0;strokeWidth=4;fontStyle=1" parent="1" source="QN6NI6EVr7MsUQMu-n-5-96" target="QN6NI6EVr7MsUQMu-n-5-96" edge="1">
                    <mxGeometry width="50" height="50" relative="1" as="geometry">
                        <mxPoint x="1170" y="847.5" as="sourcePoint"/>
                        <mxPoint x="1220" y="797.5" as="targetPoint"/>
                    </mxGeometry>
                </mxCell>
                <mxCell id="QN6NI6EVr7MsUQMu-n-5-98" value="" style="endArrow=none;html=1;rounded=0;strokeColor=#000000;entryX=0;entryY=0.5;entryDx=0;entryDy=0;exitX=1;exitY=0.5;exitDx=0;exitDy=0;strokeWidth=4;fontStyle=1" parent="1" source="QN6NI6EVr7MsUQMu-n-5-96" target="QN6NI6EVr7MsUQMu-n-5-96" edge="1">
                    <mxGeometry width="50" height="50" relative="1" as="geometry">
                        <mxPoint x="1220" y="747.5" as="sourcePoint"/>
                        <mxPoint x="1220" y="687.5" as="targetPoint"/>
                    </mxGeometry>
                </mxCell>
                <mxCell id="QN6NI6EVr7MsUQMu-n-5-99" value="" style="ellipse;whiteSpace=wrap;html=1;aspect=fixed;fillColor=#67AB9F;strokeWidth=4;strokeColor=#000000;fontStyle=1" parent="1" vertex="1">
                    <mxGeometry x="1030" y="560" width="40" height="40" as="geometry"/>
                </mxCell>
                <mxCell id="QN6NI6EVr7MsUQMu-n-5-100" value="" style="endArrow=none;html=1;rounded=0;strokeColor=#000000;strokeWidth=4;exitX=0;exitY=0;exitDx=0;exitDy=0;entryX=1;entryY=1;entryDx=0;entryDy=0;fontStyle=1" parent="1" source="QN6NI6EVr7MsUQMu-n-5-99" target="QN6NI6EVr7MsUQMu-n-5-99" edge="1">
                    <mxGeometry width="50" height="50" relative="1" as="geometry">
                        <mxPoint x="1085" y="628.75" as="sourcePoint"/>
                        <mxPoint x="1110" y="597.5" as="targetPoint"/>
                    </mxGeometry>
                </mxCell>
                <mxCell id="QN6NI6EVr7MsUQMu-n-5-101" style="edgeStyle=orthogonalEdgeStyle;rounded=0;orthogonalLoop=1;jettySize=auto;html=1;entryX=0.5;entryY=0;entryDx=0;entryDy=0;strokeColor=#000000;strokeWidth=4;fontStyle=1" parent="1" source="QN6NI6EVr7MsUQMu-n-5-92" target="QN6NI6EVr7MsUQMu-n-5-99" edge="1">
                    <mxGeometry relative="1" as="geometry"/>
                </mxCell>
                <mxCell id="QN6NI6EVr7MsUQMu-n-5-102" value="" style="endArrow=none;html=1;rounded=0;strokeColor=#000000;strokeWidth=4;exitX=0;exitY=1;exitDx=0;exitDy=0;entryX=1;entryY=0;entryDx=0;entryDy=0;fontStyle=1" parent="1" source="QN6NI6EVr7MsUQMu-n-5-99" target="QN6NI6EVr7MsUQMu-n-5-99" edge="1">
                    <mxGeometry width="50" height="50" relative="1" as="geometry">
                        <mxPoint x="1040.8578643762692" y="573.5723304703363" as="sourcePoint"/>
                        <mxPoint x="1069.311484117605" y="608.7134181196966" as="targetPoint"/>
                    </mxGeometry>
                </mxCell>
                <mxCell id="QN6NI6EVr7MsUQMu-n-5-103" style="edgeStyle=orthogonalEdgeStyle;rounded=0;orthogonalLoop=1;jettySize=auto;html=1;entryX=0.5;entryY=1;entryDx=0;entryDy=0;strokeColor=#000000;strokeWidth=4;fontStyle=1" parent="1" source="QN6NI6EVr7MsUQMu-n-5-104" target="QN6NI6EVr7MsUQMu-n-5-99" edge="1">
                    <mxGeometry relative="1" as="geometry"/>
                </mxCell>
                <mxCell id="QN6NI6EVr7MsUQMu-n-5-104" value="" style="whiteSpace=wrap;html=1;aspect=fixed;fillColor=#dae8fc;strokeColor=#000000;strokeWidth=4;fontStyle=1" parent="1" vertex="1">
                    <mxGeometry x="1036.25" y="623.75" width="27.5" height="27.5" as="geometry"/>
                </mxCell>
                <mxCell id="QN6NI6EVr7MsUQMu-n-5-105" value="" style="ellipse;whiteSpace=wrap;html=1;aspect=fixed;fillColor=#67AB9F;strokeWidth=4;strokeColor=#000000;fontStyle=1" parent="1" vertex="1">
                    <mxGeometry x="1070" y="617.5" width="40" height="40" as="geometry"/>
                </mxCell>
                <mxCell id="QN6NI6EVr7MsUQMu-n-5-106" value="" style="endArrow=none;html=1;rounded=0;strokeColor=#000000;strokeWidth=4;exitX=0;exitY=0;exitDx=0;exitDy=0;entryX=1;entryY=1;entryDx=0;entryDy=0;fontStyle=1" parent="1" edge="1">
                    <mxGeometry width="50" height="50" relative="1" as="geometry">
                        <mxPoint x="1075.8578643762694" y="623.3578643762685" as="sourcePoint"/>
                        <mxPoint x="1104.1421356237315" y="651.6421356237315" as="targetPoint"/>
                    </mxGeometry>
                </mxCell>
                <mxCell id="QN6NI6EVr7MsUQMu-n-5-107" value="" style="endArrow=none;html=1;rounded=0;strokeColor=#000000;strokeWidth=4;exitX=0;exitY=1;exitDx=0;exitDy=0;entryX=1;entryY=0;entryDx=0;entryDy=0;fontStyle=1" parent="1" edge="1">
                    <mxGeometry width="50" height="50" relative="1" as="geometry">
                        <mxPoint x="1075.8578643762694" y="651.6421356237306" as="sourcePoint"/>
                        <mxPoint x="1104.1421356237315" y="623.3578643762685" as="targetPoint"/>
                    </mxGeometry>
                </mxCell>
                <mxCell id="QN6NI6EVr7MsUQMu-n-5-108" style="edgeStyle=orthogonalEdgeStyle;rounded=0;orthogonalLoop=1;jettySize=auto;html=1;entryX=0.5;entryY=1;entryDx=0;entryDy=0;strokeColor=#000000;strokeWidth=4;exitX=0.5;exitY=0;exitDx=0;exitDy=0;fontStyle=1" parent="1" source="QN6NI6EVr7MsUQMu-n-5-114" edge="1">
                    <mxGeometry relative="1" as="geometry">
                        <mxPoint x="1089.9999999999998" y="690" as="sourcePoint"/>
                        <mxPoint x="1090" y="657.5" as="targetPoint"/>
                    </mxGeometry>
                </mxCell>
                <mxCell id="QN6NI6EVr7MsUQMu-n-5-109" style="edgeStyle=orthogonalEdgeStyle;rounded=0;jumpStyle=arc;orthogonalLoop=1;jettySize=auto;html=1;entryX=0;entryY=0;entryDx=0;entryDy=0;strokeWidth=4;strokeColor=#000000;fontStyle=1" parent="1" source="QN6NI6EVr7MsUQMu-n-5-110" target="QN6NI6EVr7MsUQMu-n-5-96" edge="1">
                    <mxGeometry relative="1" as="geometry"/>
                </mxCell>
                <mxCell id="QN6NI6EVr7MsUQMu-n-5-110" value="" style="ellipse;whiteSpace=wrap;html=1;aspect=fixed;fillColor=#67AB9F;strokeWidth=4;strokeColor=#000000;fontStyle=1" parent="1" vertex="1">
                    <mxGeometry x="1110" y="680" width="40" height="40" as="geometry"/>
                </mxCell>
                <mxCell id="QN6NI6EVr7MsUQMu-n-5-111" value="" style="endArrow=none;html=1;rounded=0;strokeColor=#000000;strokeWidth=4;exitX=0;exitY=0;exitDx=0;exitDy=0;entryX=1;entryY=1;entryDx=0;entryDy=0;fontStyle=1" parent="1" source="QN6NI6EVr7MsUQMu-n-5-110" target="QN6NI6EVr7MsUQMu-n-5-110" edge="1">
                    <mxGeometry width="50" height="50" relative="1" as="geometry">
                        <mxPoint x="1165" y="748.75" as="sourcePoint"/>
                        <mxPoint x="1190" y="717.5" as="targetPoint"/>
                    </mxGeometry>
                </mxCell>
                <mxCell id="QN6NI6EVr7MsUQMu-n-5-112" value="" style="endArrow=none;html=1;rounded=0;strokeColor=#000000;strokeWidth=4;exitX=0;exitY=1;exitDx=0;exitDy=0;entryX=1;entryY=0;entryDx=0;entryDy=0;fontStyle=1" parent="1" source="QN6NI6EVr7MsUQMu-n-5-110" target="QN6NI6EVr7MsUQMu-n-5-110" edge="1">
                    <mxGeometry width="50" height="50" relative="1" as="geometry">
                        <mxPoint x="1120.8578643762692" y="693.5723304703363" as="sourcePoint"/>
                        <mxPoint x="1149.311484117605" y="728.7134181196966" as="targetPoint"/>
                    </mxGeometry>
                </mxCell>
                <mxCell id="QN6NI6EVr7MsUQMu-n-5-113" style="edgeStyle=orthogonalEdgeStyle;rounded=0;orthogonalLoop=1;jettySize=auto;html=1;entryX=0.5;entryY=1;entryDx=0;entryDy=0;strokeColor=#000000;strokeWidth=4;exitX=0.5;exitY=0;exitDx=0;exitDy=0;fontStyle=1" parent="1" source="QN6NI6EVr7MsUQMu-n-5-115" target="QN6NI6EVr7MsUQMu-n-5-110" edge="1">
                    <mxGeometry relative="1" as="geometry">
                        <mxPoint x="1129.9999999999998" y="742.5" as="sourcePoint"/>
                    </mxGeometry>
                </mxCell>
                <mxCell id="QN6NI6EVr7MsUQMu-n-5-114" value="" style="whiteSpace=wrap;html=1;aspect=fixed;fillColor=#dae8fc;strokeColor=#000000;strokeWidth=4;fontStyle=1" parent="1" vertex="1">
                    <mxGeometry x="1076.25" y="686.25" width="27.5" height="27.5" as="geometry"/>
                </mxCell>
                <mxCell id="QN6NI6EVr7MsUQMu-n-5-115" value="" style="whiteSpace=wrap;html=1;aspect=fixed;fillColor=#dae8fc;strokeColor=#000000;strokeWidth=4;fontStyle=1" parent="1" vertex="1">
                    <mxGeometry x="1116.25" y="750" width="27.5" height="27.5" as="geometry"/>
                </mxCell>
                <mxCell id="QN6NI6EVr7MsUQMu-n-5-116" style="edgeStyle=orthogonalEdgeStyle;rounded=0;orthogonalLoop=1;jettySize=auto;html=1;entryX=0.5;entryY=0;entryDx=0;entryDy=0;strokeColor=#000000;strokeWidth=4;fontStyle=1" parent="1" source="QN6NI6EVr7MsUQMu-n-5-93" target="QN6NI6EVr7MsUQMu-n-5-105" edge="1">
                    <mxGeometry relative="1" as="geometry"/>
                </mxCell>
                <mxCell id="QN6NI6EVr7MsUQMu-n-5-117" style="edgeStyle=orthogonalEdgeStyle;rounded=0;orthogonalLoop=1;jettySize=auto;html=1;entryX=0.5;entryY=0;entryDx=0;entryDy=0;strokeColor=#000000;strokeWidth=4;fontStyle=1" parent="1" source="QN6NI6EVr7MsUQMu-n-5-94" target="QN6NI6EVr7MsUQMu-n-5-110" edge="1">
                    <mxGeometry relative="1" as="geometry"/>
                </mxCell>
                <mxCell id="QN6NI6EVr7MsUQMu-n-5-118" style="edgeStyle=orthogonalEdgeStyle;rounded=0;jumpStyle=arc;orthogonalLoop=1;jettySize=auto;html=1;entryX=0.5;entryY=0;entryDx=0;entryDy=0;strokeWidth=4;strokeColor=#000000;fontStyle=1" parent="1" source="QN6NI6EVr7MsUQMu-n-5-105" target="QN6NI6EVr7MsUQMu-n-5-96" edge="1">
                    <mxGeometry relative="1" as="geometry"/>
                </mxCell>
                <mxCell id="QN6NI6EVr7MsUQMu-n-5-119" style="edgeStyle=orthogonalEdgeStyle;rounded=0;jumpStyle=arc;orthogonalLoop=1;jettySize=auto;html=1;entryX=1;entryY=0;entryDx=0;entryDy=0;strokeWidth=4;strokeColor=#000000;fontStyle=1" parent="1" source="QN6NI6EVr7MsUQMu-n-5-99" target="QN6NI6EVr7MsUQMu-n-5-96" edge="1">
                    <mxGeometry relative="1" as="geometry"/>
                </mxCell>
                <mxCell id="QN6NI6EVr7MsUQMu-n-5-306" style="edgeStyle=orthogonalEdgeStyle;rounded=0;jumpStyle=arc;orthogonalLoop=1;jettySize=auto;html=1;entryX=1;entryY=0.5;entryDx=0;entryDy=0;strokeWidth=4;strokeColor=#000000;fontStyle=1" parent="1" source="QN6NI6EVr7MsUQMu-n-5-9" target="QN6NI6EVr7MsUQMu-n-5-94" edge="1">
                    <mxGeometry relative="1" as="geometry">
                        <Array as="points">
                            <mxPoint x="850" y="60"/>
                            <mxPoint x="1280" y="60"/>
                            <mxPoint x="1280" y="370"/>
                        </Array>
                    </mxGeometry>
                </mxCell>
                <mxCell id="QN6NI6EVr7MsUQMu-n-5-310" value="" style="ellipse;whiteSpace=wrap;html=1;aspect=fixed;fillColor=#e1d5e7;strokeColor=#000000;strokeWidth=4;fontStyle=1" parent="1" vertex="1">
                    <mxGeometry x="900" y="1000" width="60" height="60" as="geometry"/>
                </mxCell>
                <mxCell id="QN6NI6EVr7MsUQMu-n-5-311" value="" style="endArrow=none;html=1;rounded=0;strokeColor=#000000;entryX=0.5;entryY=0;entryDx=0;entryDy=0;exitX=0.5;exitY=1;exitDx=0;exitDy=0;strokeWidth=4;fontStyle=1" parent="1" source="QN6NI6EVr7MsUQMu-n-5-310" target="QN6NI6EVr7MsUQMu-n-5-310" edge="1">
                    <mxGeometry width="50" height="50" relative="1" as="geometry">
                        <mxPoint x="890" y="1023.75" as="sourcePoint"/>
                        <mxPoint x="940" y="973.75" as="targetPoint"/>
                    </mxGeometry>
                </mxCell>
                <mxCell id="QN6NI6EVr7MsUQMu-n-5-312" value="" style="endArrow=none;html=1;rounded=0;strokeColor=#000000;entryX=0;entryY=0.5;entryDx=0;entryDy=0;exitX=1;exitY=0.5;exitDx=0;exitDy=0;strokeWidth=4;fontStyle=1" parent="1" source="QN6NI6EVr7MsUQMu-n-5-310" target="QN6NI6EVr7MsUQMu-n-5-310" edge="1">
                    <mxGeometry width="50" height="50" relative="1" as="geometry">
                        <mxPoint x="940" y="923.75" as="sourcePoint"/>
                        <mxPoint x="940" y="863.75" as="targetPoint"/>
                    </mxGeometry>
                </mxCell>
                <mxCell id="QN6NI6EVr7MsUQMu-n-5-436" value="L3: Channel Memory" style="text;html=1;strokeColor=none;fillColor=none;align=left;verticalAlign=middle;whiteSpace=wrap;rounded=0;glass=0;fontSize=45;fontStyle=1;strokeWidth=6;" parent="1" vertex="1">
                    <mxGeometry x="-13.110000000000001" y="-170" width="270" height="190" as="geometry"/>
                </mxCell>
                <mxCell id="QN6NI6EVr7MsUQMu-n-5-437" value="L2: Verticle Reuse Memory" style="text;html=1;strokeColor=none;fillColor=none;align=left;verticalAlign=middle;whiteSpace=wrap;rounded=0;glass=0;fontSize=45;fontStyle=1;strokeWidth=6;" parent="1" vertex="1">
                    <mxGeometry x="-20" y="110" width="343.75" height="130" as="geometry"/>
                </mxCell>
                <mxCell id="QN6NI6EVr7MsUQMu-n-5-438" value="L1: Horizontal Reuse Memory" style="text;html=1;strokeColor=none;fillColor=none;align=left;verticalAlign=middle;whiteSpace=wrap;rounded=0;glass=0;fontSize=45;fontStyle=1;strokeWidth=6;" parent="1" vertex="1">
                    <mxGeometry x="-26.240000000000002" y="275" width="316.88" height="130" as="geometry"/>
                </mxCell>
                <mxCell id="QN6NI6EVr7MsUQMu-n-5-439" value="Weight&amp;nbsp;&lt;br&gt;Multipication" style="text;html=1;strokeColor=none;fillColor=none;align=left;verticalAlign=middle;whiteSpace=wrap;rounded=0;glass=0;fontSize=45;fontStyle=1;strokeWidth=6;" parent="1" vertex="1">
                    <mxGeometry x="-40" y="627.5" width="290" height="130" as="geometry"/>
                </mxCell>
                <mxCell id="QN6NI6EVr7MsUQMu-n-5-440" value="Partial Sum Reduction Tree" style="text;html=1;strokeColor=none;fillColor=none;align=left;verticalAlign=middle;whiteSpace=wrap;rounded=0;glass=0;fontSize=45;fontStyle=1;strokeWidth=6;" parent="1" vertex="1">
                    <mxGeometry x="-26.240000000000006" y="956.75" width="330" height="130" as="geometry"/>
                </mxCell>
            </root>
        </mxGraphModel>
    </diagram>
</mxfile>